<?xml version="1.0" encoding="UTF-8"?>
<svg xmlns="http://www.w3.org/2000/svg" xmlns:xlink="http://www.w3.org/1999/xlink" width="110px" height="110px" viewBox="0 0 110 109" version="1.1">
<defs>
<linearGradient id="linear0" gradientUnits="userSpaceOnUse" x1="50" y1="50" x2="550" y2="550" gradientTransform="matrix(0.183333,0,0,0.181667,0,0)">
<stop offset="0.0684898" style="stop-color:rgb(0%,27.843137%,67.058824%);stop-opacity:1;"/>
<stop offset="0.741212" style="stop-color:rgb(54.117647%,16.862745%,88.627451%);stop-opacity:1;"/>
</linearGradient>
</defs>
<g id="surface1">
<path style=" stroke:none;fill-rule:nonzero;fill:url(#linear0);" d="M 9.167969 27.25 C 9.167969 17.21875 17.375 9.082031 27.5 9.082031 L 55 9.082031 C 80.3125 9.082031 100.832031 29.417969 100.832031 54.5 C 100.832031 79.582031 80.3125 99.917969 55 99.917969 C 29.6875 99.917969 9.167969 79.582031 9.167969 54.5 Z M 9.167969 27.25 "/>
<path style=" stroke:none;fill-rule:evenodd;fill:rgb(100%,100%,100%);fill-opacity:0.501961;" d="M 32.632812 9.082031 L 44.367188 9.082031 L 44.367188 32.335938 L 68.96875 32.335938 C 79.277344 32.335938 87.632812 40.617188 87.632812 50.832031 C 87.632812 70.71875 71.367188 86.835938 51.300781 86.835938 C 40.992188 86.835938 32.632812 78.554688 32.632812 68.339844 L 32.632812 43.964844 L 9.167969 43.964844 L 9.167969 32.335938 L 32.632812 32.335938 Z M 44.367188 43.964844 L 44.367188 68.339844 C 44.367188 72.132812 47.46875 75.210938 51.300781 75.210938 C 64.886719 75.210938 75.898438 64.296875 75.898438 50.832031 C 75.898438 47.039062 72.796875 43.964844 68.96875 43.964844 Z M 44.367188 43.964844 "/>
<path style=" stroke:none;fill-rule:nonzero;fill:rgb(100%,100%,100%);fill-opacity:0.698039;" d="M 44.367188 19.984375 C 44.367188 16.972656 41.90625 14.535156 38.867188 14.535156 L 38.132812 14.535156 C 35.09375 14.535156 32.632812 16.972656 32.632812 19.984375 L 32.632812 32.335938 L 20.167969 32.335938 C 17.128906 32.335938 14.667969 34.777344 14.667969 37.785156 L 14.667969 38.511719 C 14.667969 41.523438 17.128906 43.964844 20.167969 43.964844 L 32.632812 43.964844 L 32.632812 56.316406 C 32.632812 59.328125 35.09375 61.765625 38.132812 61.765625 L 38.867188 61.765625 C 41.90625 61.765625 44.367188 59.328125 44.367188 56.316406 L 44.367188 43.964844 L 56.832031 43.964844 C 59.871094 43.964844 62.332031 41.523438 62.332031 38.511719 L 62.332031 37.785156 C 62.332031 34.777344 59.871094 32.335938 56.832031 32.335938 L 44.367188 32.335938 Z M 44.367188 19.984375 "/>
<path style=" stroke:none;fill-rule:nonzero;fill:rgb(100%,100%,100%);fill-opacity:1;" d="M 57.292969 37.363281 C 57.902344 37.714844 57.902344 38.585938 57.292969 38.9375 L 53.441406 41.140625 C 52.832031 41.488281 52.066406 41.050781 52.066406 40.351562 L 52.066406 35.949219 C 52.066406 35.25 52.832031 34.8125 53.441406 35.160156 Z M 57.292969 37.363281 "/>
<path style=" stroke:none;fill-rule:nonzero;fill:rgb(100%,100%,100%);fill-opacity:1;" d="M 39.292969 56.769531 C 38.941406 57.375 38.058594 57.375 37.707031 56.769531 L 35.484375 52.957031 C 35.128906 52.351562 35.570312 51.59375 36.277344 51.59375 L 40.722656 51.59375 C 41.429688 51.59375 41.871094 52.351562 41.515625 52.957031 Z M 39.292969 56.769531 "/>
<path style=" stroke:none;fill-rule:nonzero;fill:rgb(100%,100%,100%);fill-opacity:1;" d="M 37.707031 19.527344 C 38.058594 18.921875 38.941406 18.921875 39.292969 19.527344 L 41.515625 23.34375 C 41.871094 23.949219 41.429688 24.707031 40.722656 24.707031 L 36.277344 24.707031 C 35.570312 24.707031 35.128906 23.949219 35.484375 23.34375 Z M 37.707031 19.527344 "/>
<path style=" stroke:none;fill-rule:nonzero;fill:rgb(100%,100%,100%);fill-opacity:1;" d="M 19.707031 38.9375 C 19.097656 38.585938 19.097656 37.714844 19.707031 37.363281 L 23.558594 35.160156 C 24.167969 34.8125 24.933594 35.25 24.933594 35.949219 L 24.933594 40.351562 C 24.933594 41.050781 24.167969 41.488281 23.558594 41.140625 Z M 19.707031 38.9375 "/>
</g>
</svg>
