<?xml version="1.0" encoding="UTF-8"?>
<svg xmlns="http://www.w3.org/2000/svg" xmlns:xlink="http://www.w3.org/1999/xlink" width="88px" height="110px" viewBox="0 0 88 109" version="1.1">
<g id="surface1">
<path style=" stroke:none;fill-rule:nonzero;fill:rgb(65.882355%,0%,18.82353%);fill-opacity:1;" d="M 52.609375 57.574219 C 50.792969 57.59375 52.953125 58.511719 55.328125 58.871094 C 55.992188 58.363281 56.570312 57.851562 57.101562 57.339844 C 55.605469 57.703125 54.109375 57.722656 52.609375 57.574219 M 62.34375 55.171875 C 63.4375 53.679688 64.207031 52.0625 64.484375 50.382812 C 64.25 51.574219 63.585938 52.617188 62.964844 53.703125 C 59.5625 55.828125 62.644531 52.445312 62.964844 51.148438 C 59.328125 55.722656 62.472656 53.894531 62.34375 55.171875 M 65.941406 45.851562 C 66.152344 42.597656 65.296875 43.640625 65 44.875 C 65.339844 45.042969 65.617188 47.171875 65.941406 45.851562 M 45.71875 1.429688 C 46.683594 1.601562 47.816406 1.726562 47.644531 1.960938 C 48.714844 1.726562 48.953125 1.515625 45.71875 1.429688 M 47.644531 1.960938 L 46.960938 2.113281 L 47.601562 2.046875 Z M 47.644531 1.960938 "/>
<path style=" stroke:none;fill-rule:nonzero;fill:rgb(65.882355%,0%,18.82353%);fill-opacity:1;" d="M 77.859375 47.085938 C 77.964844 50 77.003906 51.425781 76.125 53.9375 L 74.5625 54.722656 C 73.277344 57.210938 74.691406 56.296875 73.769531 58.277344 C 71.761719 60.042969 67.695312 63.828125 66.390625 64.167969 C 65.425781 64.148438 67.03125 63.042969 67.246094 62.617188 C 64.570312 64.445312 65.085938 65.359375 60.996094 66.488281 L 60.867188 66.234375 C 50.75 70.976562 36.691406 61.59375 36.882812 48.789062 C 36.777344 49.597656 36.582031 49.40625 36.347656 49.722656 C 35.835938 43.128906 39.410156 36.535156 45.441406 33.832031 C 51.347656 30.917969 58.28125 32.109375 62.515625 36.042969 C 60.183594 33.023438 55.5625 29.8125 50.085938 30.109375 C 44.714844 30.195312 39.6875 33.578125 38.015625 37.277344 C 35.257812 39 34.9375 43.914062 33.738281 44.808594 C 32.132812 56.59375 36.777344 61.703125 44.628906 67.679688 C 45.871094 68.507812 44.972656 68.636719 45.144531 69.273438 C 42.53125 68.0625 40.136719 66.234375 38.167969 63.976562 C 39.214844 65.488281 40.328125 66.976562 41.785156 68.125 C 39.324219 67.296875 36.027344 62.191406 35.066406 61.976562 C 39.300781 69.53125 52.289062 75.230469 59.09375 72.402344 C 55.949219 72.507812 51.945312 72.464844 48.417969 71.167969 C 46.941406 70.402344 44.90625 68.828125 45.269531 68.550781 C 54.535156 72 64.121094 71.167969 72.144531 64.765625 C 74.179688 63.191406 76.425781 60.488281 77.066406 60.46875 C 76.101562 61.914062 77.238281 61.167969 76.488281 62.445312 C 78.519531 59.191406 75.613281 61.128906 78.585938 56.808594 L 79.699219 58.320312 C 79.292969 55.617188 83.078125 52.320312 82.695312 48.042969 C 83.570312 46.722656 83.65625 49.449219 82.738281 52.46875 C 84.019531 49.128906 83.078125 48.597656 83.398438 45.832031 C 83.761719 46.765625 84.210938 47.746094 84.46875 48.722656 C 83.636719 45.488281 85.324219 43.277344 85.753906 41.40625 C 85.347656 41.214844 84.46875 42.832031 84.253906 39.023438 C 84.277344 37.363281 84.726562 38.152344 84.898438 37.746094 C 84.578125 37.554688 83.71875 36.277344 83.1875 33.851562 C 83.570312 33.277344 84.191406 35.34375 84.703125 35.425781 C 84.382812 33.492188 83.804688 32.003906 83.785156 30.535156 C 82.285156 27.40625 83.25 30.960938 82.03125 29.195312 C 80.425781 24.214844 83.355469 28.046875 83.550781 25.789062 C 85.96875 29.277344 87.359375 34.703125 88 36.960938 C 87.507812 34.214844 86.738281 31.578125 85.773438 29.003906 C 86.503906 29.300781 84.578125 23.363281 86.738281 27.300781 C 84.449219 18.917969 76.917969 11.066406 70.003906 7.386719 C 70.859375 8.152344 71.929688 9.132812 71.546875 9.28125 C 68.101562 7.238281 68.699219 7.089844 68.207031 6.21875 C 65.40625 5.089844 65.210938 6.300781 63.371094 6.21875 C 58.085938 3.34375 57.082031 3.644531 52.203125 1.898438 L 52.417969 2.917969 C 48.910156 1.769531 48.332031 3.367188 44.566406 2.917969 C 44.328125 2.75 45.785156 2.28125 46.960938 2.113281 C 43.582031 2.558594 43.730469 1.453125 40.414062 2.238281 C 41.226562 1.664062 42.082031 1.304688 42.960938 0.8125 C 40.199219 0.984375 36.371094 2.410156 37.546875 1.113281 C 33.054688 3.109375 25.050781 5.917969 20.558594 10.089844 L 20.40625 9.152344 C 18.355469 11.601562 11.441406 16.472656 10.886719 19.664062 L 10.332031 19.789062 C 9.261719 21.597656 8.574219 23.640625 7.71875 25.492188 C 6.328125 27.855469 5.664062 26.40625 5.859375 26.769531 C 3.097656 32.320312 1.75 36.980469 0.550781 40.808594 C 1.386719 42.066406 0.574219 48.339844 0.894531 53.363281 C -0.496094 78.167969 18.417969 102.273438 39.066406 107.824219 C 42.082031 108.910156 46.597656 108.867188 50.425781 108.972656 C 45.914062 107.695312 45.335938 108.292969 40.925781 106.761719 C 37.761719 105.273438 37.054688 103.570312 34.808594 101.632812 L 35.707031 103.207031 C 31.300781 101.65625 33.140625 101.292969 29.542969 100.164062 L 30.484375 98.933594 C 29.050781 98.824219 26.699219 96.527344 26.058594 95.273438 L 24.496094 95.335938 C 22.613281 93.039062 21.605469 91.378906 21.691406 90.082031 L 21.179688 90.976562 C 20.601562 89.996094 14.265625 82.335938 17.5625 84.125 C 16.941406 83.570312 16.128906 83.230469 15.25 81.636719 L 15.914062 80.871094 C 14.332031 78.847656 13.003906 76.253906 13.113281 75.382812 C 13.945312 76.507812 14.546875 76.722656 15.125 76.914062 C 11.121094 67.042969 10.90625 76.359375 7.871094 66.871094 L 8.511719 66.828125 C 8.019531 66.085938 7.71875 65.296875 7.335938 64.507812 L 7.613281 61.742188 C 4.722656 58.425781 6.800781 47.679688 7.226562 41.765625 C 7.507812 39.363281 9.625 36.808594 11.230469 32.8125 L 10.246094 32.640625 C 12.128906 29.386719 20.941406 19.597656 25.03125 20.109375 C 27 17.640625 24.644531 20.109375 24.257812 19.472656 C 28.601562 15.003906 29.972656 16.300781 32.902344 15.515625 C 36.070312 13.640625 30.1875 16.238281 31.683594 14.8125 C 37.160156 13.429688 35.558594 11.664062 42.703125 10.941406 C 43.453125 11.367188 40.949219 11.601562 40.328125 12.152344 C 44.886719 9.941406 54.75 10.449219 61.148438 13.386719 C 68.570312 16.832031 76.9375 27.046875 77.257812 36.660156 L 77.644531 36.769531 C 77.453125 40.574219 78.222656 45 76.875 49.0625 Z M 77.859375 47.085938 "/>
<path style=" stroke:none;fill-rule:nonzero;fill:rgb(65.882355%,0%,18.82353%);fill-opacity:1;" d="M 32.796875 60.0625 L 32.539062 61.320312 C 33.738281 62.933594 34.679688 64.679688 36.199219 65.933594 C 35.109375 63.808594 34.292969 62.933594 32.796875 60.0625 M 35.601562 59.9375 C 34.957031 59.234375 34.59375 58.402344 34.167969 57.574219 C 34.574219 59.042969 35.386719 60.296875 36.15625 61.574219 Z M 85.519531 49.148438 L 85.261719 49.808594 C 84.769531 53.253906 83.71875 56.679688 82.09375 59.851562 C 83.871094 56.511719 85.027344 52.851562 85.519531 49.148438 M 46.085938 0.558594 C 47.304688 0.113281 49.101562 0.304688 50.40625 0.0273438 C 48.714844 0.175781 47.027344 0.261719 45.355469 0.472656 Z M 2.992188 23.34375 C 3.269531 25.9375 1.023438 26.960938 3.484375 25.238281 C 4.808594 22.28125 2.96875 24.429688 2.992188 23.34375 M 0.0820312 35.40625 C 0.660156 33.660156 0.746094 32.617188 0.980469 31.621094 C -0.601562 33.617188 0.253906 34.042969 0.0820312 35.40625 "/>
</g>
</svg>
