<?xml version="1.0" encoding="UTF-8"?>
<svg xmlns="http://www.w3.org/2000/svg" xmlns:xlink="http://www.w3.org/1999/xlink" width="90px" height="90px" viewBox="0 0 90 90" version="1.1">
<g id="surface1">
<path style=" stroke:none;fill-rule:nonzero;fill:rgb(31.764707%,63.529414%,85.490197%);fill-opacity:1;" d="M 45.019531 0.84375 C 20.179688 0.84375 0.0546875 20.601562 0 44.984375 L 0 79.15625 C 0.015625 84.691406 4.585938 89.15625 10.230469 89.15625 L 45.019531 89.15625 C 69.890625 89.140625 90 69.398438 90 45.019531 C 90 20.636719 69.855469 0.878906 44.984375 0.878906 Z M 45.019531 0.84375 "/>
<path style=" stroke:none;fill-rule:nonzero;fill:rgb(100%,100%,100%);fill-opacity:1;" d="M 54.175781 19 C 47.164062 19 40.957031 24.1875 40.09375 30.992188 C 40.042969 31.554688 40.023438 31.976562 40.023438 32.484375 L 40.023438 60.292969 C 40.023438 65.617188 35.945312 69.257812 30.867188 69.257812 C 25.769531 69.257812 21.671875 65.265625 21.671875 60.292969 C 21.761719 54.824219 26.226562 51.363281 31.429688 51.203125 L 31.464844 51.203125 L 36.738281 51.152344 L 36.738281 43.804688 L 31.445312 43.839844 C 21.972656 43.75 14.449219 51.027344 14.1875 60.273438 C 14.1875 69.273438 21.726562 76.605469 30.867188 76.605469 C 39.5 76.605469 46.671875 69.996094 47.460938 61.714844 C 47.566406 58.902344 47.515625 55.175781 47.515625 55.175781 C 47.53125 53.648438 47.496094 54.191406 47.515625 51.152344 L 54.070312 51.101562 C 59.148438 51.132812 59.082031 43.648438 54.015625 43.75 L 47.515625 43.804688 C 47.515625 40.023438 47.566406 36.28125 47.515625 32.5 C 47.515625 29.230469 50.679688 26.347656 54.175781 26.347656 C 57.671875 26.347656 61.382812 28.070312 61.382812 32.5 C 61.382812 33.132812 61.363281 33.503906 61.328125 33.730469 C 60.945312 35.789062 62.367188 37.757812 64.492188 38.054688 C 66.601562 38.355469 68.554688 36.859375 68.765625 34.769531 C 68.890625 33.945312 68.890625 33.222656 68.890625 32.5 C 68.851562 24.695312 61.714844 19.019531 54.175781 19 "/>
</g>
</svg>
