<?xml version="1.0" encoding="UTF-8"?>
<svg xmlns="http://www.w3.org/2000/svg" xmlns:xlink="http://www.w3.org/1999/xlink" width="79px" height="90px" viewBox="0 0 79 90" version="1.1">
<g id="surface1">
<path style=" stroke:none;fill-rule:nonzero;fill:rgb(100%,100%,100%);fill-opacity:1;" d="M 11.242188 85.230469 C 11.558594 87.828125 14.296875 89.585938 12.671875 89.992188 C 11.046875 90.394531 3.910156 77.113281 2.265625 71.4375 C 0.625 65.761719 -0.277344 59.363281 0.128906 55.710938 C 0.535156 52.054688 21.648438 46.378906 21.648438 44.851562 C 21.648438 43.324219 14.808594 44.746094 14.507812 43.535156 C 14.210938 42.320312 19.667969 43.042969 21.132812 41.089844 C 23.429688 38.050781 26.328125 38.5625 28.164062 36.925781 C 30.003906 35.308594 32.246094 29.109375 32.652344 26.472656 C 33.058594 23.835938 28.570312 20.796875 27.351562 18.757812 C 26.132812 16.738281 30.003906 15.316406 39.382812 11.449219 C 48.765625 7.582031 78.550781 -0.921875 78.957031 0.0820312 C 79.363281 1.082031 69.167969 5.351562 62.03125 7.988281 C 54.894531 10.625 43.269531 15.703125 43.269531 17.125 C 43.269531 18.546875 43.886719 19.65625 43.480469 22.90625 C 43.074219 26.15625 43.023438 27.667969 42.261719 29.8125 C 41.75 31.234375 41.238281 34.574219 42.261719 37.628906 C 43.074219 40.070312 45.726562 41.882812 46.960938 42.304688 C 47.988281 42.375 50.796875 42.460938 53.90625 42.304688 C 57.773438 42.09375 63.285156 42.515625 63.285156 43.515625 C 63.285156 44.519531 54.929688 43.921875 54.929688 45.34375 C 54.929688 46.765625 63.496094 45.132812 63.285156 46.554688 C 63.074219 47.980469 56.148438 47.363281 52.472656 47.363281 C 49.542969 47.363281 45.195312 47.222656 43.289062 46.554688 L 42.863281 48.015625 C 42.191406 48.015625 40.761719 48.417969 39.296875 48.417969 C 37.457031 48.417969 37.351562 49.035156 33.996094 49.035156 C 30.636719 49.035156 31.644531 48.824219 28.589844 48.628906 C 25.53125 48.4375 14.101562 57.152344 12.070312 59.996094 C 10.039062 62.84375 11.257812 69.730469 11.257812 72.878906 C 11.242188 75.6875 10.835938 81.980469 11.242188 85.230469 "/>
</g>
</svg>
