<?xml version="1.0" encoding="UTF-8"?>
<svg xmlns="http://www.w3.org/2000/svg" xmlns:xlink="http://www.w3.org/1999/xlink" width="110px" height="px" viewBox="0 0 110 110" version="1.1">
<g id="surface1">
<path style=" stroke:none;fill-rule:nonzero;fill:rgb(98.039216%,32.156864%,32.156864%);fill-opacity:1;" d="M 36.375 22.0625 C 42.5625 22.0625 47.585938 27.09375 47.585938 33.28125 L 47.585938 47.632812 C 47.976562 47.5 48.359375 47.414062 48.769531 47.414062 C 50.039062 47.414062 51.15625 48.039062 51.820312 49.007812 L 51.820312 33.277344 C 51.820312 24.75 44.878906 17.808594 36.351562 17.808594 C 31.023438 17.808594 26.296875 20.515625 23.523438 24.640625 C 24.726562 25.414062 25.867188 26.253906 26.960938 27.175781 C 28.980469 24.105469 32.441406 22.0625 36.371094 22.0625 M 61.207031 47.4375 C 61.617188 47.4375 62.023438 47.523438 62.390625 47.652344 L 62.390625 33.300781 C 62.390625 27.113281 67.417969 22.085938 73.605469 22.085938 C 77.539062 22.085938 80.996094 24.125 83.015625 27.199219 C 84.109375 26.296875 85.25 25.4375 86.453125 24.664062 C 83.679688 20.539062 78.953125 17.832031 73.625 17.832031 C 65.097656 17.832031 58.15625 24.773438 58.15625 33.300781 L 58.15625 49.027344 C 58.824219 48.0625 59.941406 47.4375 61.207031 47.4375 M 46.320312 69.953125 C 38.648438 71.800781 32.140625 75.992188 27.390625 81.554688 C 24.769531 84.625 22.6875 88.128906 21.246094 91.867188 L 31.257812 91.929688 L 88.300781 92.1875 L 88.300781 92.167969 C 82.027344 75.453125 64.132812 65.65625 46.320312 69.953125 M 48.789062 56.652344 C 46.707031 56.652344 45.03125 58.328125 45.03125 60.414062 C 45.03125 62.496094 46.707031 64.171875 48.789062 64.171875 C 50.875 64.171875 52.550781 62.496094 52.550781 60.414062 C 52.550781 58.328125 50.875 56.652344 48.789062 56.652344 M 61.207031 64.195312 C 63.292969 64.195312 64.96875 62.519531 64.96875 60.433594 C 64.96875 58.351562 63.292969 56.675781 61.207031 56.675781 C 59.125 56.675781 57.449219 58.351562 57.449219 60.433594 C 57.449219 62.519531 59.125 64.195312 61.207031 64.195312 M 96.121094 47.953125 L 101.855469 24.578125 C 97 25.179688 92.511719 26.960938 88.644531 29.605469 C 87.289062 30.527344 86 31.582031 84.820312 32.699219 C 79.148438 38.15625 75.601562 45.824219 75.601562 54.3125 C 75.601562 60.90625 77.730469 67.007812 81.339844 71.953125 C 83.316406 74.679688 85.765625 77.042969 88.515625 78.953125 L 90.511719 70.835938 C 100.804688 67.761719 108.582031 58.867188 110 47.953125 Z M 28.679688 71.953125 C 32.289062 67.007812 34.417969 60.90625 34.417969 54.3125 C 34.417969 45.824219 30.871094 38.15625 25.199219 32.699219 C 24.019531 31.558594 22.730469 30.53125 21.375 29.605469 C 17.53125 26.960938 13.039062 25.179688 8.164062 24.578125 L 13.898438 47.953125 L 0 47.953125 C 1.417969 58.867188 9.195312 67.761719 19.484375 70.835938 L 21.484375 78.953125 C 24.257812 77.042969 26.683594 74.679688 28.679688 71.953125 "/>
</g>
</svg>
