<?xml version="1.0" encoding="UTF-8"?>
<svg xmlns="http://www.w3.org/2000/svg" xmlns:xlink="http://www.w3.org/1999/xlink" width="80px" height="80px" viewBox="0 0 80 80" version="1.1">
<g id="surface1">
<rect x="0" y="0" width="80" height="80" style="fill:rgb(25.490198%,74.117649%,96.078432%);fill-opacity:1;stroke:none;"/>
<path style=" stroke:none;fill-rule:evenodd;fill:rgb(100%,100%,100%);fill-opacity:1;" d="M 39.980469 11.199219 C 39.484375 11.203125 39.011719 11.402344 38.664062 11.757812 L 8.753906 42.09375 C 8.332031 42.523438 8.207031 43.164062 8.4375 43.71875 C 8.671875 44.273438 9.214844 44.636719 9.816406 44.636719 L 15.367188 44.636719 L 15.367188 65.953125 C 15.367188 66.640625 15.921875 67.199219 16.609375 67.199219 L 63.367188 67.199219 C 64.054688 67.199219 64.613281 66.644531 64.613281 65.953125 L 64.613281 44.636719 L 70.1875 44.636719 C 70.789062 44.636719 71.328125 44.277344 71.5625 43.722656 C 71.792969 43.167969 71.671875 42.53125 71.253906 42.101562 L 64.613281 35.308594 L 64.613281 24.601562 C 64.609375 23.914062 64.054688 23.355469 63.367188 23.355469 L 58.183594 23.355469 C 57.496094 23.355469 56.9375 23.914062 56.9375 24.601562 L 56.9375 27.515625 L 41.320312 11.75 L 41.304688 11.738281 C 40.953125 11.390625 40.476562 11.195312 39.980469 11.199219 Z M 39.988281 24.15625 C 43.050781 24.164062 45.679688 26.332031 46.261719 29.335938 C 46.847656 32.339844 45.226562 35.339844 42.390625 36.492188 L 42.386719 50.683594 L 47.050781 46.015625 C 46.210938 44.039062 46.417969 41.773438 47.605469 39.984375 C 48.789062 38.191406 50.792969 37.117188 52.941406 37.117188 C 56.472656 37.121094 59.335938 39.984375 59.335938 43.515625 C 59.335938 45.664062 58.261719 47.667969 56.472656 48.851562 C 54.683594 50.039062 52.417969 50.25 50.441406 49.410156 L 42.386719 57.472656 L 42.386719 67.199219 L 37.589844 67.199219 L 37.589844 57.472656 L 29.535156 49.410156 C 27.558594 50.25 25.296875 50.039062 23.507812 48.851562 C 21.71875 47.667969 20.644531 45.664062 20.644531 43.519531 C 20.640625 40.921875 22.207031 38.582031 24.609375 37.59375 C 27.007812 36.605469 29.769531 37.167969 31.59375 39.015625 C 33.417969 40.863281 33.945312 43.628906 32.929688 46.019531 L 37.589844 50.683594 L 37.589844 36.492188 C 34.753906 35.34375 33.125 32.34375 33.710938 29.335938 C 34.296875 26.332031 36.925781 24.160156 39.988281 24.15625 Z M 39.988281 27.996094 C 38.578125 27.996094 37.433594 29.140625 37.433594 30.554688 C 37.433594 31.96875 38.578125 33.113281 39.988281 33.113281 C 41.402344 33.113281 42.546875 31.96875 42.546875 30.554688 C 42.546875 29.140625 41.402344 27.996094 39.988281 27.996094 Z M 27.039062 40.957031 C 25.625 40.957031 24.480469 42.101562 24.480469 43.515625 C 24.480469 44.929688 25.625 46.074219 27.039062 46.074219 C 28.453125 46.074219 29.597656 44.929688 29.597656 43.515625 C 29.597656 42.105469 28.453125 40.957031 27.039062 40.957031 Z M 52.941406 40.957031 C 51.527344 40.957031 50.382812 42.105469 50.382812 43.515625 C 50.382812 44.929688 51.53125 46.074219 52.941406 46.074219 C 54.355469 46.074219 55.5 44.929688 55.5 43.515625 C 55.5 42.101562 54.355469 40.957031 52.941406 40.957031 Z M 52.941406 40.957031 "/>
</g>
</svg>
