<?xml version="1.0" encoding="UTF-8"?>
<svg xmlns="http://www.w3.org/2000/svg" xmlns:xlink="http://www.w3.org/1999/xlink" width="100px" height="100px" viewBox="0 0 100 100" version="1.1">
<g id="surface1">
<path style=" stroke:none;fill-rule:nonzero;fill:rgb(98.039216%,16.078432%,12.941177%);fill-opacity:1;" d="M 46.640625 30.371094 C 53.183594 36.171875 58.457031 42.382812 61.855469 48.242188 C 67.695312 37.8125 71.582031 25.410156 71.640625 17.519531 L 71.640625 17.363281 C 71.640625 5.683594 59.980469 1.132812 49.941406 1.132812 C 39.902344 1.132812 28.242188 5.664062 28.242188 17.34375 L 28.242188 17.96875 C 33.847656 20.46875 40.46875 24.921875 46.640625 30.371094 "/>
<path style=" stroke:none;fill-rule:nonzero;fill:rgb(92.941177%,47.450981%,70.980394%);fill-opacity:1;" d="M 10.917969 62.226562 C 15.019531 57.675781 21.289062 52.734375 28.378906 48.574219 C 35.917969 44.140625 43.457031 41.035156 50.078125 39.628906 C 41.953125 30.859375 31.367188 23.320312 23.886719 20.839844 C 23.828125 20.820312 23.789062 20.800781 23.75 20.800781 C 12.617188 17.148438 4.6875 26.835938 1.582031 36.386719 C -1.523438 45.9375 -0.800781 58.417969 10.3125 62.03125 C 10.46875 62.070312 10.664062 62.148438 10.917969 62.226562 "/>
<path style=" stroke:none;fill-rule:nonzero;fill:rgb(100%,70.588237%,0%);fill-opacity:1;" d="M 98.417969 36.210938 C 95.3125 26.679688 87.382812 16.992188 76.269531 20.605469 C 76.113281 20.664062 75.917969 20.722656 75.664062 20.800781 C 75.019531 26.894531 72.851562 34.570312 69.570312 42.109375 C 66.074219 50.136719 61.796875 57.070312 57.285156 62.109375 C 69.003906 64.433594 81.992188 64.316406 89.53125 61.914062 C 89.589844 61.894531 89.628906 61.875 89.667969 61.875 C 100.800781 58.242188 101.503906 45.761719 98.417969 36.210938 "/>
<path style=" stroke:none;fill-rule:nonzero;fill:rgb(11.764706%,51.372552%,96.862745%);fill-opacity:1;" d="M 40.039062 71.542969 C 38.144531 63.007812 37.539062 54.882812 38.222656 48.144531 C 27.382812 53.164062 16.933594 60.898438 12.246094 67.246094 C 12.207031 67.285156 12.1875 67.324219 12.148438 67.363281 C 5.273438 76.816406 12.03125 87.34375 20.15625 93.242188 C 28.28125 99.140625 40.371094 102.304688 47.246094 92.871094 C 47.34375 92.734375 47.460938 92.578125 47.617188 92.363281 C 44.570312 87.070312 41.816406 79.570312 40.039062 71.542969 "/>
<path style=" stroke:none;fill-rule:nonzero;fill:rgb(9.411765%,76.078433%,28.627452%);fill-opacity:1;" d="M 87.65625 66.777344 C 81.660156 68.046875 73.691406 68.359375 65.507812 67.558594 C 56.796875 66.71875 48.886719 64.785156 42.695312 62.050781 C 44.101562 73.925781 48.242188 86.230469 52.832031 92.65625 C 52.871094 92.695312 52.890625 92.734375 52.929688 92.773438 C 59.804688 102.226562 71.894531 99.0625 80.019531 93.144531 C 88.144531 87.246094 94.902344 76.71875 88.027344 67.265625 C 87.929688 67.148438 87.8125 66.992188 87.65625 66.777344 "/>
</g>
</svg>
