<?xml version="1.0" encoding="UTF-8"?>
<svg xmlns="http://www.w3.org/2000/svg" xmlns:xlink="http://www.w3.org/1999/xlink" width="95px" height="110px" viewBox="0 0 95 109" version="1.1">
<g id="surface1">
<path style=" stroke:none;fill-rule:evenodd;fill:rgb(98.039216%,64.313728%,18.431373%);fill-opacity:1;" d="M 0.386719 81.546875 L 0 81.355469 L 0 81.738281 L 0.386719 81.929688 Z M 0.386719 81.546875 "/>
<path style=" stroke:none;fill-rule:evenodd;fill:rgb(86.666667%,69.01961%,16.470589%);fill-opacity:1;" d="M 0.386719 67.925781 L 0.386719 61.183594 L 0 60.992188 L 0 68.183594 Z M 0.386719 67.925781 "/>
<path style=" stroke:none;fill-rule:evenodd;fill:rgb(76.862746%,46.666667%,15.686275%);fill-opacity:1;" d="M 5.089844 70.652344 L 0.386719 67.925781 L 0 68.183594 L 0 81.355469 L 0.386719 81.546875 L 5.089844 78.824219 Z M 5.089844 70.652344 "/>
<path style=" stroke:none;fill-rule:evenodd;fill:rgb(94.509804%,34.901962%,20%);fill-opacity:1;" d="M 12.210938 88.292969 L 18.09375 91.71875 L 18.09375 92.101562 L 11.828125 88.546875 Z M 12.210938 88.292969 "/>
<path style=" stroke:none;fill-rule:evenodd;fill:rgb(95.294118%,44.313726%,19.607843%);fill-opacity:1;" d="M 5.089844 78.824219 L 0.386719 81.546875 L 0.386719 81.929688 L 11.828125 88.546875 L 12.210938 88.292969 L 12.210938 82.90625 Z M 5.089844 78.824219 "/>
<path style=" stroke:none;fill-rule:evenodd;fill:rgb(83.92157%,87.843138%,25.882354%);fill-opacity:1;" d="M 0.386719 47.625 L 0.386719 40.816406 L 0 40.625 L 0 47.816406 Z M 0.386719 47.625 "/>
<path style=" stroke:none;fill-rule:evenodd;fill:rgb(98.823529%,91.764706%,23.137255%);fill-opacity:1;" d="M 0 60.992188 L 0.386719 61.183594 L 4.492188 58.839844 C 4.296875 57.394531 4.214844 55.945312 4.234375 54.5 C 4.234375 53.011719 4.363281 51.457031 4.492188 49.96875 L 0.386719 47.625 L 0 47.816406 Z M 0 60.992188 "/>
<path style=" stroke:none;fill-rule:evenodd;fill:rgb(98.039216%,64.313728%,18.431373%);fill-opacity:1;" d="M 0.386719 67.992188 L 5.089844 70.652344 L 12.210938 66.628906 L 12.210938 61.183594 L 8.746094 59.160156 C 8.8125 60.140625 9.003906 61.097656 9.195312 62.074219 L 5.410156 64.289062 C 4.941406 62.5 4.640625 60.671875 4.492188 58.839844 L 0.386719 61.183594 Z M 0.386719 67.992188 "/>
<path style=" stroke:none;fill-rule:evenodd;fill:rgb(94.509804%,34.901962%,20%);fill-opacity:1;" d="M 12.210938 88.292969 L 12.210938 82.90625 L 14.117188 81.800781 L 14.050781 81.738281 C 14.972656 82.84375 15.953125 83.867188 16.917969 84.84375 C 18.5625 86.484375 20.316406 87.972656 22.199219 89.3125 L 18.09375 91.71875 Z M 19.25 78.824219 L 24.015625 81.546875 L 24.015625 85.503906 C 22.542969 84.441406 21.171875 83.25 19.910156 81.929688 C 19.140625 81.226562 18.414062 80.460938 17.75 79.652344 Z M 19.25 78.824219 "/>
<path style=" stroke:none;fill-rule:evenodd;fill:rgb(88.627452%,14.509805%,45.490196%);fill-opacity:1;" d="M 35.84375 101.847656 L 29.898438 98.484375 L 29.578125 98.675781 L 35.84375 102.316406 Z M 35.84375 101.847656 "/>
<path style=" stroke:none;fill-rule:evenodd;fill:rgb(93.725491%,21.960784%,22.352941%);fill-opacity:1;" d="M 29.578125 98.675781 L 29.898438 98.484375 L 29.898438 93.738281 C 27.183594 92.546875 24.59375 91.078125 22.199219 89.335938 L 18.070312 91.738281 L 18.070312 92.121094 Z M 29.578125 98.675781 "/>
<path style=" stroke:none;fill-rule:evenodd;fill:rgb(73.333335%,83.92157%,29.411766%);fill-opacity:1;" d="M 0.386719 27.261719 L 0.386719 27.070312 L 0 27.261719 L 0 27.453125 Z M 0.386719 27.261719 "/>
<path style=" stroke:none;fill-rule:evenodd;fill:rgb(83.92157%,87.843138%,25.882354%);fill-opacity:1;" d="M 6.265625 30.644531 L 0.386719 27.261719 L 0 27.453125 L 0 40.625 L 0.386719 40.816406 L 6.265625 37.433594 Z M 6.265625 30.644531 "/>
<path style=" stroke:none;fill-rule:evenodd;fill:rgb(100%,81.176472%,16.078432%);fill-opacity:1;" d="M 0.386719 47.625 L 4.492188 49.96875 C 4.941406 45.925781 5.945312 41.945312 7.484375 38.179688 L 6.246094 37.476562 L 0.363281 40.859375 L 0.363281 47.625 Z M 8.746094 49.5625 L 12.210938 47.625 L 12.210938 40.816406 L 11.164062 40.222656 C 9.964844 43.222656 9.152344 46.371094 8.746094 49.5625 "/>
<path style=" stroke:none;fill-rule:evenodd;fill:rgb(98.039216%,64.313728%,18.431373%);fill-opacity:1;" d="M 8.746094 59.160156 L 12.210938 61.183594 L 18.09375 57.796875 L 18.09375 50.988281 L 12.210938 47.625 L 8.746094 49.5625 C 8.535156 51.203125 8.425781 52.839844 8.425781 54.5 C 8.425781 56.054688 8.535156 57.628906 8.746094 59.160156 "/>
<path style=" stroke:none;fill-rule:evenodd;fill:rgb(94.509804%,34.901962%,20%);fill-opacity:1;" d="M 29.898438 72.078125 L 29.898438 78.097656 L 24.015625 81.546875 L 19.25 78.824219 L 19.25 70.652344 L 23.355469 68.308594 Z M 29.898438 72.078125 "/>
<path style=" stroke:none;fill-rule:evenodd;fill:rgb(93.333334%,26.274511%,55.29412%);fill-opacity:1;" d="M 29.898438 98.484375 L 35.84375 101.847656 L 41.789062 98.484375 L 41.789062 97.121094 C 37.621094 96.546875 33.621094 95.441406 29.898438 93.738281 Z M 41.789062 92.910156 L 41.789062 91.738281 L 35.84375 88.3125 L 32.378906 90.3125 C 35.394531 91.589844 38.558594 92.441406 41.789062 92.910156 "/>
<path style=" stroke:none;fill-rule:evenodd;fill:rgb(95.294118%,44.313726%,19.607843%);fill-opacity:1;" d="M 18.09375 57.796875 L 12.210938 61.183594 L 12.210938 66.628906 L 19.269531 70.652344 L 23.375 68.308594 L 23.375 60.796875 Z M 18.09375 57.796875 "/>
<path style=" stroke:none;fill-rule:evenodd;fill:rgb(80.000001%,19.215687%,57.254905%);fill-opacity:1;" d="M 41.789062 98.464844 L 35.84375 101.824219 L 35.84375 102.273438 L 47.265625 108.828125 L 47.648438 108.636719 L 47.648438 101.824219 Z M 41.789062 98.464844 "/>
<path style=" stroke:none;fill-rule:evenodd;fill:rgb(74.117649%,12.54902%,14.509805%);fill-opacity:1;" d="M 32.378906 90.3125 L 35.84375 88.3125 L 35.84375 81.566406 L 29.898438 78.121094 L 24.015625 81.566406 L 24.015625 85.527344 C 26.582031 87.460938 29.386719 89.078125 32.378906 90.3125 "/>
<path style=" stroke:none;fill-rule:evenodd;fill:rgb(60.784316%,22.352941%,58.431375%);fill-opacity:1;" d="M 47.648438 108.65625 L 47.265625 108.847656 L 47.519531 108.976562 L 47.84375 108.785156 Z M 47.648438 108.65625 "/>
<path style=" stroke:none;fill-rule:evenodd;fill:rgb(94.509804%,92.156863%,34.901962%);fill-opacity:1;" d="M 12.210938 20.453125 L 12.019531 20.390625 L 0.40625 27.070312 L 0.40625 27.261719 L 6.289062 30.644531 L 12.210938 27.261719 Z M 12.210938 20.453125 "/>
<path style=" stroke:none;fill-rule:evenodd;fill:rgb(98.823529%,91.764706%,23.137255%);fill-opacity:1;" d="M 6.265625 37.457031 L 7.507812 38.15625 C 9.003906 34.453125 11.035156 31.09375 13.453125 27.964844 L 12.210938 27.261719 L 6.265625 30.644531 Z M 11.164062 40.222656 L 12.210938 40.816406 L 18.09375 37.457031 L 18.09375 30.644531 L 17.109375 30.136719 C 14.628906 33.179688 12.640625 36.582031 11.164062 40.222656 "/>
<path style=" stroke:none;fill-rule:evenodd;fill:rgb(98.039216%,64.313728%,18.431373%);fill-opacity:1;" d="M 23.375 47.945312 L 23.375 40.691406 L 23.566406 40.5625 L 18.09375 37.457031 L 12.210938 40.816406 L 12.210938 47.625 L 18.09375 50.988281 Z M 23.375 47.945312 "/>
<path style=" stroke:none;fill-rule:evenodd;fill:rgb(88.627452%,14.509805%,45.490196%);fill-opacity:1;" d="M 47.648438 88.292969 L 47.648438 82.058594 L 47.519531 82.121094 L 41.125 78.480469 L 35.84375 81.523438 L 35.84375 88.269531 L 41.789062 91.695312 Z M 47.648438 88.292969 "/>
<path style=" stroke:none;fill-rule:evenodd;fill:rgb(96.862745%,59.215689%,37.254903%);fill-opacity:1;" d="M 23.375 60.796875 L 23.375 47.96875 L 18.09375 51.011719 L 18.09375 57.820312 Z M 23.375 60.796875 "/>
<path style=" stroke:none;fill-rule:evenodd;fill:rgb(80.000001%,19.215687%,57.254905%);fill-opacity:1;" d="M 41.789062 98.464844 L 47.671875 101.824219 L 53.617188 98.464844 L 53.617188 97.039062 C 51.605469 97.292969 49.574219 97.421875 47.542969 97.421875 C 45.617188 97.421875 43.714844 97.3125 41.789062 97.101562 Z M 53.59375 92.824219 L 53.59375 91.71875 L 47.648438 88.292969 L 41.769531 91.71875 L 41.769531 92.886719 C 43.671875 93.144531 45.597656 93.269531 47.519531 93.269531 C 49.554688 93.292969 51.585938 93.144531 53.59375 92.824219 "/>
<path style=" stroke:none;fill-rule:evenodd;fill:rgb(82.745099%,12.156863%,14.901961%);fill-opacity:1;" d="M 35.84375 81.546875 L 41.125 78.503906 L 29.898438 72.078125 L 29.898438 78.121094 Z M 35.84375 81.546875 "/>
<path style=" stroke:none;fill-rule:evenodd;fill:rgb(45.09804%,12.54902%,41.568628%);fill-opacity:1;" d="M 59.476562 101.847656 L 53.59375 98.484375 L 47.648438 101.847656 L 47.648438 108.65625 L 47.84375 108.785156 L 59.457031 102.101562 L 59.457031 101.847656 Z M 59.476562 101.847656 "/>
<path style=" stroke:none;fill-rule:evenodd;fill:rgb(83.92157%,87.843138%,25.882354%);fill-opacity:1;" d="M 12.210938 20.453125 L 18.09375 17.070312 L 18.09375 16.878906 L 12.019531 20.390625 Z M 12.210938 20.453125 "/>
<path style=" stroke:none;fill-rule:evenodd;fill:rgb(100%,81.176472%,16.078432%);fill-opacity:1;" d="M 12.210938 27.261719 L 13.453125 27.964844 C 14.5625 26.601562 15.742188 25.367188 16.917969 24.132812 C 18.605469 22.453125 20.445312 20.898438 22.390625 19.539062 L 18.070312 17.070312 L 12.210938 20.453125 Z M 17.109375 30.113281 L 18.09375 30.644531 L 24.039062 27.261719 L 24.039062 23.496094 C 22.5625 24.558594 21.195312 25.75 19.933594 27.070312 C 18.925781 28.050781 18.007812 29.007812 17.109375 30.113281 "/>
<path style=" stroke:none;fill-rule:evenodd;fill:rgb(98.039216%,64.313728%,18.431373%);fill-opacity:1;" d="M 29.898438 30.644531 L 24.015625 27.261719 L 18.070312 30.644531 L 18.070312 37.457031 L 23.546875 40.5625 L 29.878906 36.921875 L 29.878906 30.644531 Z M 29.898438 30.644531 "/>
<path style=" stroke:none;fill-rule:evenodd;fill:rgb(52.156866%,22.745098%,58.823532%);fill-opacity:1;" d="M 65.421875 98.484375 L 59.476562 101.847656 L 59.476562 102.101562 L 65.613281 98.589844 Z M 65.421875 98.484375 "/>
<path style=" stroke:none;fill-rule:evenodd;fill:rgb(80.000001%,19.215687%,57.254905%);fill-opacity:1;" d="M 59.476562 81.546875 L 54.066406 78.375 L 47.671875 82.078125 L 47.671875 88.3125 L 53.617188 91.738281 L 59.496094 88.3125 Z M 59.476562 81.546875 "/>
<path style=" stroke:none;fill-rule:evenodd;fill:rgb(60.784316%,22.352941%,58.431375%);fill-opacity:1;" d="M 53.59375 98.464844 L 59.476562 101.824219 L 65.421875 98.464844 L 65.421875 93.589844 C 61.65625 95.292969 57.679688 96.441406 53.59375 97.039062 Z M 62.8125 90.226562 L 59.476562 88.292969 L 53.59375 91.71875 L 53.59375 92.824219 C 56.804688 92.3125 59.925781 91.460938 62.8125 90.226562 "/>
<path style=" stroke:none;fill-rule:evenodd;fill:rgb(100%,81.176472%,16.078432%);fill-opacity:1;" d="M 18.070312 17.070312 L 22.390625 19.539062 C 24.746094 17.855469 27.269531 16.429688 29.898438 15.261719 L 29.898438 10.261719 L 29.769531 10.195312 L 18.09375 16.878906 Z M 18.070312 17.070312 "/>
<path style=" stroke:none;fill-rule:evenodd;fill:rgb(85.09804%,54.11765%,14.901961%);fill-opacity:1;" d="M 24.015625 27.261719 L 29.898438 30.644531 L 35.84375 27.261719 L 35.84375 20.453125 L 32.636719 18.644531 C 29.492188 19.878906 26.625 21.558594 24.015625 23.515625 Z M 24.015625 27.261719 "/>
<path style=" stroke:none;fill-rule:evenodd;fill:rgb(56.078434%,30.980393%,62.352943%);fill-opacity:1;" d="M 65.421875 98.484375 L 65.613281 98.613281 L 77.226562 91.929688 L 77.226562 91.738281 L 72.90625 89.269531 C 70.554688 90.953125 68.03125 92.421875 65.402344 93.613281 Z M 65.421875 98.484375 "/>
<path style=" stroke:none;fill-rule:evenodd;fill:rgb(95.294118%,44.313726%,19.607843%);fill-opacity:1;" d="M 35.84375 27.261719 L 29.898438 30.644531 L 29.898438 36.945312 L 41.320312 30.390625 Z M 35.84375 27.261719 "/>
<path style=" stroke:none;fill-rule:evenodd;fill:rgb(82.352942%,29.411766%,60.784316%);fill-opacity:1;" d="M 59.476562 81.546875 L 65.421875 78.097656 L 65.421875 71.863281 L 54.066406 78.355469 Z M 59.476562 81.546875 "/>
<path style=" stroke:none;fill-rule:evenodd;fill:rgb(69.803923%,38.82353%,65.490198%);fill-opacity:1;" d="M 59.476562 88.292969 L 62.8125 90.226562 C 65.851562 88.953125 68.714844 87.269531 71.304688 85.226562 L 71.304688 81.523438 L 65.421875 78.078125 L 59.476562 81.546875 Z M 59.476562 88.292969 "/>
<path style=" stroke:none;fill-rule:evenodd;fill:rgb(100%,81.176472%,16.078432%);fill-opacity:1;" d="M 29.898438 10.261719 L 35.84375 6.875 L 35.84375 6.683594 L 29.769531 10.195312 Z M 29.898438 10.261719 "/>
<path style=" stroke:none;fill-rule:evenodd;fill:rgb(98.039216%,64.313728%,18.431373%);fill-opacity:1;" d="M 32.636719 18.644531 L 35.84375 20.453125 L 40.613281 17.792969 L 40.613281 16.304688 L 40.871094 16.238281 C 38.046875 16.730469 35.289062 17.539062 32.636719 18.644531 M 40.59375 9.621094 L 35.824219 6.898438 L 29.878906 10.28125 L 29.878906 15.28125 C 33.300781 13.792969 36.890625 12.726562 40.570312 12.109375 Z M 40.59375 9.621094 "/>
<path style=" stroke:none;fill-rule:evenodd;fill:rgb(41.960785%,16.078432%,47.843137%);fill-opacity:1;" d="M 72.929688 89.269531 L 77.25 91.738281 L 83.195312 88.3125 L 83.195312 82.929688 L 76.074219 78.84375 L 71.304688 81.566406 L 71.304688 85.269531 C 72.09375 84.757812 72.738281 84.164062 73.464844 83.589844 L 77.25 85.738281 C 75.878906 86.972656 74.425781 88.164062 72.929688 89.269531 "/>
<path style=" stroke:none;fill-rule:evenodd;fill:rgb(47.058824%,16.470589%,56.078434%);fill-opacity:1;" d="M 83.171875 88.292969 L 77.226562 91.71875 L 77.226562 91.910156 L 83.367188 88.398438 Z M 83.171875 88.292969 "/>
<path style=" stroke:none;fill-rule:evenodd;fill:rgb(95.294118%,44.313726%,19.607843%);fill-opacity:1;" d="M 47.519531 26.878906 L 47.648438 26.941406 L 47.648438 21.816406 L 40.59375 17.792969 L 35.84375 20.453125 L 35.84375 27.261719 L 41.339844 30.367188 Z M 47.519531 26.878906 "/>
<path style=" stroke:none;fill-rule:evenodd;fill:rgb(60.784316%,22.352941%,58.431375%);fill-opacity:1;" d="M 76.050781 78.824219 L 76.050781 70.652344 L 71.625 68.117188 L 71.625 68.308594 L 65.421875 71.886719 L 65.421875 78.121094 L 71.304688 81.566406 Z M 76.050781 78.824219 "/>
<path style=" stroke:none;fill-rule:evenodd;fill:rgb(98.039216%,64.313728%,18.431373%);fill-opacity:1;" d="M 47.648438 5.535156 L 47.648438 0.152344 L 47.519531 0.0234375 L 35.84375 6.707031 L 35.84375 6.898438 L 40.613281 9.621094 Z M 47.648438 5.535156 "/>
<path style=" stroke:none;fill-rule:evenodd;fill:rgb(94.509804%,34.901962%,20%);fill-opacity:1;" d="M 47.648438 21.816406 L 54.773438 17.792969 L 59.476562 20.453125 L 59.476562 27.261719 L 53.851562 30.496094 L 47.648438 26.921875 Z M 47.648438 21.816406 "/>
<path style=" stroke:none;fill-rule:evenodd;fill:rgb(47.058824%,16.470589%,56.078434%);fill-opacity:1;" d="M 95 81.546875 L 90.230469 78.824219 L 83.171875 82.90625 L 83.171875 88.292969 L 83.367188 88.417969 L 94.980469 81.738281 Z M 95 81.546875 "/>
<path style=" stroke:none;fill-rule:evenodd;fill:rgb(62.7451%,8.627451%,39.215687%);fill-opacity:1;" d="M 77.25 57.820312 L 77.25 51.011719 L 71.625 47.777344 L 71.625 61.011719 Z M 77.25 57.820312 "/>
<path style=" stroke:none;fill-rule:evenodd;fill:rgb(75.294119%,12.54902%,14.901961%);fill-opacity:1;" d="M 65.421875 30.644531 L 59.476562 27.261719 L 53.851562 30.496094 L 65.402344 37.113281 L 65.402344 30.644531 Z M 65.421875 30.644531 "/>
<path style=" stroke:none;fill-rule:evenodd;fill:rgb(60.784316%,22.352941%,58.431375%);fill-opacity:1;" d="M 83.171875 66.628906 L 83.171875 61.183594 L 77.226562 57.796875 L 71.625 60.96875 L 71.625 68.117188 L 76.050781 70.652344 Z M 83.171875 66.628906 "/>
<path style=" stroke:none;fill-rule:evenodd;fill:rgb(94.509804%,34.901962%,20%);fill-opacity:1;" d="M 54.773438 9.621094 L 59.476562 6.898438 L 65.421875 10.28125 L 65.421875 15.410156 C 63.648438 14.601562 61.808594 13.941406 59.925781 13.386719 L 59.925781 17.730469 C 60.84375 17.984375 61.742188 18.324219 62.597656 18.707031 L 59.476562 20.453125 L 54.773438 17.792969 Z M 54.773438 9.621094 "/>
<path style=" stroke:none;fill-rule:evenodd;fill:rgb(56.470591%,31.764707%,62.7451%);fill-opacity:1;" d="M 83.964844 68.375 C 84.09375 68.183594 84.179688 67.949219 84.222656 67.714844 C 84.179688 67.96875 84.09375 68.183594 83.964844 68.375 M 84.347656 67.480469 C 85.289062 64.863281 85.910156 62.140625 86.253906 59.371094 L 83.171875 61.183594 L 83.171875 66.628906 L 84.414062 67.351562 Z M 90.230469 70.652344 L 95 67.925781 L 95 61.183594 L 90.550781 58.648438 C 90.1875 62.375 89.3125 66.035156 88.007812 69.542969 L 88.070312 69.417969 Z M 90.230469 70.652344 "/>
<path style=" stroke:none;fill-rule:evenodd;fill:rgb(69.01961%,10.588235%,29.019609%);fill-opacity:1;" d="M 71.304688 27.261719 L 65.421875 30.644531 L 65.421875 37.136719 L 71.558594 40.710938 L 77.25 37.476562 L 77.25 30.667969 Z M 71.304688 27.261719 "/>
<path style=" stroke:none;fill-rule:evenodd;fill:rgb(77.254903%,27.450982%,15.294118%);fill-opacity:1;" d="M 59.476562 6.898438 L 47.671875 0.152344 L 47.671875 5.535156 L 54.773438 9.621094 Z M 59.476562 6.898438 "/>
<path style=" stroke:none;fill-rule:evenodd;fill:rgb(64.313728%,9.019608%,40.784314%);fill-opacity:1;" d="M 83.195312 47.625 L 83.195312 40.816406 L 77.25 37.457031 L 71.558594 40.691406 L 71.625 40.691406 L 71.625 47.753906 L 77.25 50.988281 Z M 83.195312 47.625 "/>
<path style=" stroke:none;fill-rule:evenodd;fill:rgb(93.725491%,21.960784%,22.352941%);fill-opacity:1;" d="M 59.476562 27.261719 L 65.421875 30.644531 L 71.304688 27.261719 L 71.304688 23.75 C 68.652344 21.664062 65.742188 19.964844 62.621094 18.6875 L 59.476562 20.453125 Z M 59.476562 27.261719 "/>
<path style=" stroke:none;fill-rule:evenodd;fill:rgb(60.784316%,22.352941%,58.431375%);fill-opacity:1;" d="M 77.226562 57.796875 L 83.171875 61.183594 L 86.230469 59.371094 C 86.445312 57.753906 86.550781 56.136719 86.550781 54.5 C 86.550781 52.796875 86.425781 51.074219 86.230469 49.371094 L 83.152344 47.625 L 77.226562 50.988281 Z M 77.226562 57.796875 "/>
<path style=" stroke:none;fill-rule:evenodd;fill:rgb(41.960785%,16.078432%,47.843137%);fill-opacity:1;" d="M 90.550781 58.648438 L 95 61.183594 L 95 47.625 L 90.488281 50.160156 C 90.679688 51.605469 90.765625 53.054688 90.742188 54.5 C 90.742188 55.925781 90.679688 57.289062 90.550781 58.648438 "/>
<path style=" stroke:none;fill-rule:evenodd;fill:rgb(88.627452%,14.509805%,45.490196%);fill-opacity:1;" d="M 71.28125 27.261719 L 77.226562 30.644531 L 77.953125 30.261719 C 77.097656 29.136719 76.160156 28.09375 75.152344 27.09375 C 73.933594 25.921875 72.652344 24.816406 71.304688 23.792969 L 71.304688 27.261719 Z M 81.613281 28.113281 L 83.171875 27.261719 L 83.171875 20.453125 L 77.226562 17.070312 L 72.800781 19.664062 C 74.683594 21.007812 76.457031 22.515625 78.082031 24.132812 C 79.324219 25.410156 80.5 26.730469 81.613281 28.113281 "/>
<path style=" stroke:none;fill-rule:evenodd;fill:rgb(80.000001%,19.215687%,57.254905%);fill-opacity:1;" d="M 77.226562 37.457031 L 83.171875 40.839844 L 83.878906 40.457031 C 82.46875 36.773438 80.457031 33.328125 77.933594 30.285156 L 77.226562 30.667969 Z M 87.558594 38.285156 L 89.054688 37.433594 L 89.054688 30.625 L 83.171875 27.261719 L 81.613281 28.113281 C 84.027344 31.21875 86.039062 34.644531 87.558594 38.285156 "/>
<path style=" stroke:none;fill-rule:evenodd;fill:rgb(93.725491%,21.960784%,22.352941%);fill-opacity:1;" d="M 72.800781 19.664062 L 77.226562 17.070312 L 65.402344 10.261719 L 65.402344 15.386719 C 68.011719 16.558594 70.492188 18.003906 72.800781 19.664062 "/>
<path style=" stroke:none;fill-rule:evenodd;fill:rgb(69.803923%,38.82353%,65.490198%);fill-opacity:1;" d="M 83.171875 47.625 L 86.253906 49.371094 C 85.824219 46.308594 85.035156 43.308594 83.898438 40.414062 L 83.171875 40.796875 Z M 90.488281 50.160156 L 95 47.625 L 95 40.816406 L 89.054688 37.433594 L 87.558594 38.285156 C 89.054688 42.050781 90.101562 46.007812 90.488281 50.160156 "/>
<path style=" stroke:none;fill-rule:evenodd;fill:rgb(81.960785%,28.627452%,60.392159%);fill-opacity:1;" d="M 89.054688 30.644531 L 95 27.261719 L 83.171875 20.453125 L 83.171875 27.261719 Z M 89.054688 30.644531 "/>
<path style=" stroke:none;fill-rule:evenodd;fill:rgb(60.784316%,22.352941%,58.431375%);fill-opacity:1;" d="M 89.054688 30.644531 L 89.054688 37.457031 L 95 40.839844 L 95 27.261719 Z M 89.054688 30.644531 "/>
<path style=" stroke:none;fill-rule:evenodd;fill:rgb(52.156866%,27.058825%,60.392159%);fill-opacity:1;" d="M 95 67.925781 L 90.230469 70.652344 L 90.230469 78.824219 L 95 81.546875 Z M 95 67.925781 "/>
<path style=" stroke:none;fill-rule:evenodd;fill:rgb(94.509804%,34.901962%,20%);fill-opacity:1;" d="M 35.84375 61.183594 L 35.84375 61.839844 L 35.265625 61.523438 L 35.265625 60.882812 Z M 41.789062 57.796875 L 35.84375 61.183594 L 35.265625 60.863281 L 35.265625 47.945312 L 35.84375 47.625 L 41.789062 50.988281 Z M 41.789062 57.796875 "/>
<path style=" stroke:none;fill-rule:evenodd;fill:rgb(88.627452%,14.509805%,45.490196%);fill-opacity:1;" d="M 47.648438 67.925781 L 47.050781 68.308594 L 47.5 68.566406 L 48.097656 68.183594 Z M 47.648438 67.925781 "/>
<path style=" stroke:none;fill-rule:evenodd;fill:rgb(93.725491%,21.960784%,22.352941%);fill-opacity:1;" d="M 41.789062 57.796875 L 35.84375 61.183594 L 35.84375 61.839844 L 47.070312 68.332031 L 47.671875 67.949219 L 47.671875 61.203125 Z M 41.789062 57.796875 "/>
<path style=" stroke:none;fill-rule:evenodd;fill:rgb(93.333334%,24.705882%,54.11765%);fill-opacity:1;" d="M 59.476562 61.183594 L 53.59375 57.820312 L 47.648438 61.183594 L 47.648438 67.925781 L 48.097656 68.183594 L 59.457031 61.628906 Z M 59.476562 61.183594 "/>
<path style=" stroke:none;fill-rule:evenodd;fill:rgb(93.725491%,21.960784%,22.352941%);fill-opacity:1;" d="M 53.59375 50.988281 L 47.648438 47.625 L 41.769531 50.988281 L 41.769531 57.796875 L 47.648438 61.183594 L 53.59375 57.796875 Z M 53.59375 50.988281 "/>
<path style=" stroke:none;fill-rule:evenodd;fill:rgb(88.627452%,14.509805%,45.490196%);fill-opacity:1;" d="M 59.734375 47.753906 L 59.476562 47.625 L 53.59375 50.988281 L 53.59375 57.796875 L 59.476562 61.183594 L 59.734375 61.054688 Z M 59.734375 47.753906 "/>
<path style=" stroke:none;fill-rule:evenodd;fill:rgb(80.000001%,19.215687%,57.254905%);fill-opacity:1;" d="M 59.476562 61.183594 L 59.476562 61.628906 L 59.734375 61.5 L 59.734375 61.054688 Z M 59.476562 61.183594 "/>
<path style=" stroke:none;fill-rule:evenodd;fill:rgb(95.294118%,44.313726%,19.607843%);fill-opacity:1;" d="M 35.84375 47.625 L 35.84375 47.179688 L 35.265625 47.5 L 35.265625 47.945312 Z M 35.84375 47.625 "/>
<path style=" stroke:none;fill-rule:evenodd;fill:rgb(94.509804%,34.901962%,20%);fill-opacity:1;" d="M 47.648438 40.816406 L 47.648438 47.625 L 41.769531 50.988281 L 35.824219 47.625 L 35.824219 47.179688 L 47.242188 40.625 Z M 47.648438 40.816406 "/>
<path style=" stroke:none;fill-rule:evenodd;fill:rgb(95.686275%,50.196081%,37.254903%);fill-opacity:1;" d="M 47.671875 40.816406 L 47.285156 40.625 L 47.542969 40.5 L 47.925781 40.691406 Z M 47.671875 40.816406 "/>
<path style=" stroke:none;fill-rule:evenodd;fill:rgb(93.725491%,21.960784%,22.352941%);fill-opacity:1;" d="M 59.476562 47.371094 L 47.925781 40.691406 L 47.671875 40.816406 L 47.671875 47.625 L 53.617188 50.988281 L 59.496094 47.625 L 59.496094 47.371094 Z M 59.476562 47.371094 "/>
<path style=" stroke:none;fill-rule:evenodd;fill:rgb(88.627452%,14.509805%,45.490196%);fill-opacity:1;" d="M 59.734375 47.753906 L 59.734375 47.5 L 59.476562 47.371094 L 59.476562 47.625 Z M 59.734375 47.753906 "/>
<path style=" stroke:none;fill-rule:evenodd;fill:rgb(95.294118%,44.313726%,19.607843%);fill-opacity:1;" d="M 51.714844 11.367188 L 47.671875 9.027344 L 43.628906 11.367188 L 43.628906 16.027344 L 47.671875 18.367188 L 51.714844 16.027344 Z M 51.714844 11.367188 "/>
<path style=" stroke:none;fill-rule:evenodd;fill:rgb(33.333334%,13.333334%,38.82353%);fill-opacity:1;" d="M 87.238281 72.394531 L 83.195312 70.054688 L 79.089844 72.394531 L 79.089844 77.054688 L 83.195312 79.398438 L 87.238281 77.054688 Z M 87.238281 72.394531 "/>
<path style=" stroke:none;fill-rule:evenodd;fill:rgb(95.294118%,44.313726%,19.607843%);fill-opacity:1;" d="M 16.253906 72.394531 L 12.210938 70.054688 L 8.167969 72.394531 L 8.167969 77.078125 L 12.210938 79.398438 L 16.253906 77.054688 Z M 16.253906 72.394531 "/>
</g>
</svg>
