<?xml version="1.0" encoding="UTF-8"?>
<svg xmlns="http://www.w3.org/2000/svg" xmlns:xlink="http://www.w3.org/1999/xlink" width="110px" height="px" viewBox="0 0 110 110" version="1.1">
<defs>
<linearGradient id="linear0" gradientUnits="userSpaceOnUse" x1="2.71" y1="20.040001" x2="69.769997" y2="20.040001" gradientTransform="matrix(0.84661,0,0,0.84661,17.61375,0)">
<stop offset="0" style="stop-color:rgb(7.058824%,69.803922%,7.058824%);stop-opacity:1;"/>
<stop offset="1" style="stop-color:rgb(0%,100%,0%);stop-opacity:1;"/>
</linearGradient>
</defs>
<g id="surface1">
<path style=" stroke:none;fill-rule:nonzero;fill:url(#linear0);" d="M 48.566406 33.804688 C 34.832031 32.339844 21 21.960938 19.90625 0 C 41.21875 0 52.613281 12.613281 53.714844 32.601562 C 57.742188 8.628906 76.632812 11.4375 76.632812 11.4375 C 77.527344 25.027344 66.371094 33.261719 53.714844 33.949219 C 50.15625 26.457031 28.855469 8.078125 28.855469 8.078125 C 28.761719 8.144531 49.320312 26.050781 48.566406 33.804688 "/>
<path style=" stroke:none;fill-rule:nonzero;fill:rgb(59.607846%,0.784314%,0%);fill-opacity:1;" d="M 55 110 C 53.671875 109.925781 41.269531 109.449219 40.515625 95.515625 C 39.90625 87.050781 46.59375 80.808594 46.59375 72.589844 C 45.078125 52.09375 17.613281 54.632812 17.613281 72.589844 C 17.601562 77.078125 19.378906 81.382812 22.550781 84.558594 L 43.011719 105.03125 C 46.1875 108.199219 50.496094 109.976562 54.984375 109.964844 "/>
<path style=" stroke:none;fill-rule:nonzero;fill:rgb(100%,0%,0%);fill-opacity:1;" d="M 92.386719 72.597656 C 92.3125 73.925781 91.835938 86.328125 77.902344 87.082031 C 69.433594 87.691406 63.1875 81.003906 54.976562 81.003906 C 34.476562 82.519531 37.015625 109.976562 54.976562 109.976562 C 59.460938 109.984375 63.769531 108.210938 66.945312 105.039062 L 87.425781 84.578125 C 90.597656 81.402344 92.371094 77.09375 92.359375 72.605469 "/>
<path style=" stroke:none;fill-rule:nonzero;fill:rgb(59.607846%,0.784314%,0%);fill-opacity:1;" d="M 55 35.210938 C 56.328125 35.285156 68.730469 35.761719 69.484375 49.695312 C 70.09375 58.164062 63.40625 64.402344 63.40625 72.621094 C 64.921875 93.121094 92.378906 90.578125 92.378906 72.621094 C 92.390625 68.136719 90.613281 63.828125 87.441406 60.652344 L 66.972656 40.171875 C 63.796875 37 59.488281 35.222656 55 35.238281 "/>
<path style=" stroke:none;fill-rule:nonzero;fill:rgb(100%,0%,0%);fill-opacity:1;" d="M 17.683594 72.597656 C 17.757812 71.269531 18.234375 58.863281 32.164062 58.113281 C 40.632812 57.503906 46.878906 64.191406 55.09375 64.191406 C 75.589844 62.648438 73.050781 35.21875 55.09375 35.21875 C 50.605469 35.207031 46.296875 36.984375 43.121094 40.15625 L 22.640625 60.625 C 19.472656 63.800781 17.695312 68.109375 17.707031 72.597656 "/>
</g>
</svg>
