<?xml version="1.0" encoding="UTF-8"?>
<svg xmlns="http://www.w3.org/2000/svg" xmlns:xlink="http://www.w3.org/1999/xlink" width="110px" height="px" viewBox="0 0 110 110" version="1.1">
<defs>
<linearGradient id="linear0" gradientUnits="userSpaceOnUse" x1="59.049999" y1="2.95" x2="59.049999" y2="120.349998" gradientTransform="matrix(0.932203,0,0,-0.932203,0,112.516946)">
<stop offset="0" style="stop-color:rgb(3.137255%,50.980392%,78.431373%);stop-opacity:1;"/>
<stop offset="1" style="stop-color:rgb(14.901961%,71.372549%,85.882353%);stop-opacity:1;"/>
</linearGradient>
</defs>
<g id="surface1">
<path style=" stroke:none;fill-rule:nonzero;fill:url(#linear0);" d="M 109.71875 55 C 109.71875 24.777344 85.222656 0.28125 55 0.28125 C 24.777344 0.28125 0.28125 24.777344 0.28125 55 C 0.28125 85.222656 24.777344 109.71875 55 109.71875 C 85.222656 109.71875 109.71875 85.222656 109.71875 55 Z M 109.71875 55 "/>
<path style="fill:none;stroke-width:6;stroke-linecap:butt;stroke-linejoin:miter;stroke:rgb(100%,100%,100%);stroke-opacity:1;stroke-miterlimit:10;" d="M 102.701065 58.798864 C 102.701065 34.66669 83.136364 15.101989 59 15.101989 C 34.863636 15.101989 15.298935 34.66669 15.298935 58.798864 C 15.298935 82.935227 34.863636 102.499929 59 102.499929 C 83.136364 102.499929 102.701065 82.935227 102.701065 58.798864 Z M 102.701065 58.798864 " transform="matrix(0.932203,0,0,0.932203,0,0)"/>
<path style=" stroke:none;fill-rule:nonzero;fill:rgb(100%,100%,100%);fill-opacity:1;" d="M 88.558594 44.839844 C 92.941406 46.332031 97.695312 44 99.1875 39.617188 C 100.679688 35.238281 98.347656 30.484375 93.964844 28.992188 C 89.585938 27.5 84.832031 29.832031 83.339844 34.304688 C 81.847656 38.78125 84.179688 43.347656 88.558594 44.839844 "/>
<path style="fill:none;stroke-width:6;stroke-linecap:butt;stroke-linejoin:miter;stroke:rgb(100%,100%,100%);stroke-opacity:1;stroke-miterlimit:10;" d="M 97.898935 39.799858 L 67.799716 64.799432 " transform="matrix(0.932203,0,0,0.932203,0,0)"/>
<path style=" stroke:none;fill-rule:nonzero;fill:rgb(100%,100%,100%);fill-opacity:1;" d="M 72.617188 85.109375 C 72.246094 89.679688 75.601562 93.78125 80.261719 94.246094 C 84.921875 94.617188 88.933594 91.261719 89.398438 86.601562 C 89.769531 82.035156 86.414062 77.933594 81.753906 77.464844 C 77.1875 77.1875 72.992188 80.449219 72.617188 85.109375 "/>
<path style="fill:none;stroke-width:6;stroke-linecap:butt;stroke-linejoin:miter;stroke:rgb(100%,100%,100%);stroke-opacity:1;stroke-miterlimit:10;" d="M 86.798722 92.200071 L 67.799716 64.799432 " transform="matrix(0.932203,0,0,0.932203,0,0)"/>
<path style=" stroke:none;fill-rule:nonzero;fill:rgb(100%,100%,100%);fill-opacity:1;" d="M 56.210938 64.972656 C 58.730469 68.890625 63.949219 70.007812 67.769531 67.492188 C 71.6875 64.972656 72.804688 59.753906 70.289062 55.933594 C 67.769531 52.015625 62.550781 50.898438 58.730469 53.414062 C 54.8125 55.746094 53.695312 60.964844 56.210938 64.972656 M 20.042969 57.609375 C 16.035156 55.28125 10.90625 56.585938 8.578125 60.5 C 6.246094 64.507812 7.550781 69.636719 11.464844 71.964844 C 15.472656 74.296875 20.601562 72.992188 22.933594 69.078125 C 25.261719 65.066406 23.957031 59.941406 20.042969 57.609375 "/>
<path style="fill:none;stroke-width:6;stroke-linecap:butt;stroke-linejoin:miter;stroke:rgb(100%,100%,100%);stroke-opacity:1;stroke-miterlimit:10;" d="M 16.899645 69.400426 L 67.799716 64.799432 " transform="matrix(0.932203,0,0,0.932203,0,0)"/>
</g>
</svg>
