<?xml version="1.0" encoding="UTF-8"?>
<svg xmlns="http://www.w3.org/2000/svg" xmlns:xlink="http://www.w3.org/1999/xlink" width="110px" height="110px" viewBox="0 0 110 109" version="1.1">
<g id="surface1">
<path style=" stroke:none;fill-rule:nonzero;fill:rgb(53.333336%,9.019608%,10.196079%);fill-opacity:1;" d="M 109.90625 52.886719 C 109.90625 52.886719 112.449219 0 53.792969 0 C 1.914062 0 0.296875 50.730469 0.296875 50.730469 C 0.296875 50.730469 -7.335938 109 54.988281 109 C 114.761719 109 109.90625 52.886719 109.90625 52.886719 Z M 109.90625 52.886719 "/>
<path style=" stroke:none;fill-rule:nonzero;fill:rgb(100%,100%,100%);fill-opacity:1;" d="M 37.378906 34.40625 C 48.386719 27.734375 62.449219 31.8125 67.714844 41.847656 C 68.714844 43.746094 68.839844 46.675781 68.210938 48.671875 C 66.027344 55.558594 60.871094 59.421875 53.792969 61.0625 C 55.878906 59.292969 57.542969 57.285156 58.070312 54.511719 C 58.625 51.855469 58.019531 49.089844 56.402344 46.898438 C 53.828125 43.390625 49.21875 42 45.105469 43.488281 C 40.75 45.125 38.363281 49.066406 38.792969 53.90625 C 39.195312 58.40625 42.636719 61.320312 49.082031 62.429688 C 48.121094 62.933594 47.378906 63.304688 46.652344 63.707031 C 43.699219 65.308594 41.128906 67.523438 39.121094 70.199219 C 38.464844 71.074219 38.015625 71.144531 37.019531 70.542969 C 24.0625 62.691406 23.230469 42.984375 37.378906 34.40625 Z M 27.683594 82.921875 C 25.601562 83.445312 23.582031 84.222656 21.457031 84.914062 C 22.496094 77.953125 30.71875 71.546875 37.671875 72.277344 C 35.660156 75.027344 34.484375 78.292969 34.285156 81.683594 C 31.972656 82.105469 29.796875 82.390625 27.683594 82.921875 Z M 71.972656 14.988281 C 74.027344 15.0625 76.089844 15.03125 78.148438 15.078125 C 78.660156 15.113281 79.171875 15.183594 79.675781 15.289062 C 79.214844 15.988281 78.695312 16.652344 78.121094 17.261719 C 77.386719 17.941406 76.554688 18.609375 75.496094 17.574219 C 75.238281 17.328125 74.636719 17.382812 74.195312 17.378906 C 72.148438 17.351562 70.097656 17.285156 68.054688 17.363281 C 66.28125 17.417969 64.511719 17.597656 62.765625 17.898438 C 62.4375 17.957031 61.945312 19.035156 62.097656 19.433594 C 62.453125 20.371094 62.972656 21.410156 63.738281 22.007812 C 66.578125 24.230469 69.597656 26.222656 72.445312 28.425781 C 75.21875 30.570312 77.796875 32.917969 79.367188 36.148438 C 81.414062 40.359375 81.476562 44.777344 80.59375 49.210938 C 79.117188 56.613281 75.335938 62.75 69.214844 67.203125 C 66.746094 69 63.691406 70.019531 60.867188 71.308594 C 58.378906 72.441406 55.824219 73.421875 53.332031 74.542969 C 48.839844 76.566406 46.316406 81.398438 47.058594 86.417969 C 47.738281 91.027344 51.820312 94.875 56.496094 95.667969 C 62.101562 96.621094 67.886719 93.011719 69.257812 87.363281 C 70.800781 81.011719 67.320312 75.34375 60.800781 73.625 C 60.515625 73.546875 60.226562 73.476562 59.628906 73.324219 C 61.371094 72.550781 62.878906 72 64.265625 71.242188 C 66.691406 69.921875 69.074219 68.519531 71.410156 67.042969 C 72.097656 66.605469 72.46875 66.605469 73.054688 67.109375 C 77.539062 70.949219 80.210938 75.726562 80.960938 81.582031 C 82.203125 91.277344 77.570312 100.1875 68.835938 104.75 C 55.320312 111.8125 38.78125 103.773438 35.796875 88.925781 C 33.238281 76.207031 42.296875 64.671875 53.199219 62.445312 C 57.886719 61.488281 62.175781 59.554688 65.507812 55.976562 C 67.660156 53.667969 68.699219 51.6875 69.054688 50.792969 C 69.71875 49.117188 70.054688 47.332031 70.054688 45.535156 C 69.984375 43.980469 69.613281 42.449219 68.964844 41.03125 C 67.828125 38.460938 63.46875 34.371094 62.390625 33.507812 L 52.121094 25.542969 C 51.761719 25.25 51.351562 25.269531 50.46875 25.328125 C 49.421875 25.398438 46.738281 25.546875 45.582031 25.246094 C 46.515625 24.542969 49.070312 23.523438 50.164062 22.699219 C 46.839844 20.472656 43.042969 21.277344 39.554688 20.613281 C 40.359375 19.125 44.351562 16.835938 46.621094 16.582031 C 46.484375 15.328125 46.277344 14.078125 46 12.847656 C 45.863281 12.339844 45.292969 11.851562 44.796875 11.5625 C 43.589844 10.863281 42.3125 10.285156 40.925781 9.589844 C 42.167969 8.792969 43.605469 8.355469 45.082031 8.316406 C 46.480469 8.261719 47.882812 8.398438 49.242188 8.71875 C 51.714844 9.277344 53.6875 8.910156 55.65625 7.246094 C 54.109375 6.628906 52.558594 6.0625 51.058594 5.394531 C 49.578125 4.726562 48.136719 3.980469 46.738281 3.160156 C 50.632812 3.695312 54.402344 5.140625 58.382812 4.613281 C 58.417969 4.433594 58.453125 4.253906 58.484375 4.074219 C 55.507812 3.390625 52.53125 2.703125 49.234375 1.941406 C 54.75 1.441406 59.882812 1.359375 64.746094 3.707031 C 66.113281 4.367188 67.542969 4.914062 68.855469 5.667969 C 69.496094 6.035156 69.925781 6.757812 70.449219 7.324219 C 70.867188 7.769531 71.203125 8.371094 71.714844 8.640625 C 73.65625 9.664062 75.796875 9.703125 77.976562 9.652344 C 77.992188 9.40625 78.007812 9.175781 78.023438 8.929688 C 80.21875 9.609375 82.6875 12.113281 82.683594 13.945312 C 79.128906 13.945312 75.578125 13.933594 72.027344 13.964844 C 71.648438 13.96875 71.273438 14.242188 70.894531 14.390625 C 71.253906 14.597656 71.605469 14.972656 71.972656 14.988281 Z M 71.972656 14.988281 "/>
<path style=" stroke:none;fill-rule:nonzero;fill:rgb(53.333336%,9.019608%,10.196079%);fill-opacity:1;" d="M 67.386719 9.777344 C 67.242188 9.867188 67.148438 10.019531 67.136719 10.1875 C 67.121094 10.359375 67.1875 10.523438 67.320312 10.636719 C 67.425781 10.824219 67.605469 10.964844 67.820312 11.019531 C 68.03125 11.074219 68.257812 11.046875 68.445312 10.933594 C 68.785156 10.765625 69.121094 10.582031 69.535156 10.367188 C 69.203125 10.085938 68.9375 9.851562 68.660156 9.628906 C 68.179688 9.234375 67.777344 9.480469 67.386719 9.777344 Z M 67.386719 9.777344 "/>
</g>
</svg>
